<svg id="Layer_1" data-name="Layer 1" xmlns="http://www.w3.org/2000/svg" viewBox="0 0 319.79 183.71"><defs><style>.cls-1{fill:#fff;}.cls-2{fill:none;stroke:#fff;stroke-miterlimit:10;stroke-width:10px;}</style></defs><path class="cls-1" d="M409.22,193.22A16.82,16.82,0,1,0,426,210,16.84,16.84,0,0,0,409.22,193.22Zm0,25.23a8.41,8.41,0,1,1,8.41-8.41A8.42,8.42,0,0,1,409.22,218.45Z" transform="translate(-106.25 -164.14)"/><path class="cls-1" d="M193.54,308.83h-46c-10.27,0-18.62-7.8-18.62-17.38v-70.9c0-9.58,8.35-17.38,18.62-17.38h46c10.26,0,18.61,7.8,18.61,17.38v70.9C212.15,301,203.8,308.83,193.54,308.83Zm-46-99.52c-6.64,0-12,5-12,11.24v70.9c0,6.2,5.4,11.24,12,11.24h46c6.64,0,12-5,12-11.24v-70.9c0-6.2-5.4-11.24-12-11.24Z" transform="translate(-106.25 -164.14)"/><path class="cls-1" d="M270.2,308.83h-46c-10.26,0-18.61-7.8-18.61-17.38v-70.9c0-9.58,8.35-17.38,18.61-17.38h46c10.27,0,18.62,7.8,18.62,17.38v70.9C288.82,301,280.47,308.83,270.2,308.83Zm-46-99.52c-6.64,0-12,5-12,11.24v70.9c0,6.2,5.4,11.24,12,11.24h46c6.64,0,12-5,12-11.24v-70.9c0-6.2-5.4-11.24-12-11.24Z" transform="translate(-106.25 -164.14)"/><path class="cls-1" d="M346.87,308.83h-46c-10.27,0-18.62-7.8-18.62-17.38v-70.9c0-9.58,8.35-17.38,18.62-17.38h46c10.26,0,18.61,7.8,18.61,17.38v70.9C365.48,301,357.13,308.83,346.87,308.83Zm-46-99.52c-6.64,0-12,5-12,11.24v70.9c0,6.2,5.4,11.24,12,11.24h46c6.64,0,12-5,12-11.24v-70.9c0-6.2-5.4-11.24-12-11.24Z" transform="translate(-106.25 -164.14)"/><path class="cls-1" d="M303.64,237.61l3.48,8.42H294.49Zm9.6,8.42,11.62-9.13L336.48,246Zm25,2.61L324.86,281l-13.38-32.35Zm-18.06,29-26.09-29H308.2Zm21.34-29h14.11l-26.09,29ZM328.8,236.42h14.5l-3.55,8.6ZM310,245l-3.56-8.6h14.5Zm32.62,1,3.49-8.42,9.14,8.42Z" transform="translate(-106.25 -164.14)"/><path class="cls-1" d="M227,238.79l3.49,8.42H217.83Zm9.61,8.42,11.62-9.13,11.62,9.13Zm25,2.62L248.2,282.18l-13.38-32.35Zm-18.06,29-26.09-29h14.11Zm21.34-29H279l-26.09,29Zm-12.72-12.22h14.5l-3.56,8.59Zm-18.83,8.59-3.55-8.59h14.5Zm32.63,1,3.48-8.42,9.15,8.42Z" transform="translate(-106.25 -164.14)"/><path class="cls-1" d="M150.31,238.08l3.48,8.42H141.16Zm9.6,8.42,11.62-9.12,11.62,9.12Zm25,2.62-13.39,32.35-13.38-32.35Zm-18.07,29-26.09-29h14.11Zm21.34-29H202.3l-26.09,29ZM175.47,236.9H190l-3.55,8.59Zm-18.82,8.59-3.56-8.59h14.5Zm32.63,1,3.48-8.42,9.14,8.42Z" transform="translate(-106.25 -164.14)"/><path class="cls-1" d="M390.23,309.78h11.68a13,13,0,1,0,0-26.07H390.23Z" transform="translate(-106.25 -164.14)"/><path class="cls-1" d="M410.64,298.43a1.68,1.68,0,0,1-1.69-1.68V220.5a1.69,1.69,0,0,1,3.37,0v76.25A1.68,1.68,0,0,1,410.64,298.43Z" transform="translate(-106.25 -164.14)"/><path class="cls-1" d="M412.32,298.43a1.68,1.68,0,0,1-1.68-1.68V220.5a1.69,1.69,0,0,1,3.37,0v76.25A1.68,1.68,0,0,1,412.32,298.43Z" transform="translate(-106.25 -164.14)"/><path class="cls-1" d="M408.26,290.83a1.69,1.69,0,0,1-1.69-1.69v-61a1.69,1.69,0,1,1,3.38,0v61A1.69,1.69,0,0,1,408.26,290.83Z" transform="translate(-106.25 -164.14)"/><path class="cls-1" d="M406.41,288.2a1.69,1.69,0,0,1-1.69-1.69v-61a1.69,1.69,0,1,1,3.38,0v61A1.69,1.69,0,0,1,406.41,288.2Z" transform="translate(-106.25 -164.14)"/><path class="cls-1" d="M397.27,306.82c-1.28,0-2.14-.08-2.25-.09a1.69,1.69,0,1,1,.33-3.36c2.19.22,8.54.18,11.52-2.53a5.23,5.23,0,0,0,1.7-4.09,1.69,1.69,0,0,1,3.38,0,8.52,8.52,0,0,1-2.82,6.6C405.81,306.36,400.33,306.82,397.27,306.82Z" transform="translate(-106.25 -164.14)"/><rect class="cls-2" x="5" y="5" width="272.98" height="173.71" rx="12.08"/></svg>